<?xml version="1.0" standalone="no"?>
<!DOCTYPE svg PUBLIC "-//W3C//DTD SVG 20010904//EN"
 "http://www.w3.org/TR/2001/REC-SVG-20010904/DTD/svg10.dtd">
<svg version="1.0" xmlns="http://www.w3.org/2000/svg"
 width="971.000000pt" height="971.000000pt" viewBox="0 0 971.000000 971.000000"
 preserveAspectRatio="xMidYMid meet">
<metadata>
Created by potrace 1.14, written by Peter Selinger 2001-2017
</metadata>
<g transform="translate(0.000000,971.000000) scale(0.100000,-0.100000)"
fill="#000000" stroke="none">
<path d="M4598 9705 c-1 -2 -43 -6 -93 -9 -125 -9 -166 -14 -275 -32 -52 -8
-112 -17 -135 -20 -66 -8 -343 -72 -450 -105 -55 -16 -107 -32 -115 -34 -16
-4 -153 -52 -240 -83 -30 -11 -77 -30 -105 -42 -27 -12 -68 -29 -90 -38 -92
-38 -428 -214 -529 -276 -236 -146 -448 -302 -666 -491 -46 -40 -346 -339
-391 -390 -19 -22 -70 -83 -113 -135 -43 -52 -86 -104 -95 -115 -9 -11 -50
-67 -91 -125 -41 -58 -78 -109 -83 -115 -36 -44 -194 -304 -267 -440 -89 -165
-194 -392 -257 -555 -31 -80 -142 -405 -148 -434 -2 -12 -22 -93 -45 -181 -22
-88 -42 -173 -45 -190 -2 -16 -13 -79 -25 -140 -22 -119 -23 -123 -45 -300
-25 -202 -29 -289 -30 -580 0 -251 6 -422 20 -525 2 -19 6 -57 9 -85 7 -73 15
-126 37 -255 19 -115 24 -143 34 -190 3 -14 7 -34 9 -45 3 -11 10 -42 16 -70
6 -27 13 -58 15 -67 23 -110 109 -384 179 -571 124 -331 252 -588 459 -921 10
-17 89 -132 178 -261 15 -22 69 -92 121 -156 679 -848 1584 -1412 2618 -1634
77 -16 102 -21 155 -29 17 -3 59 -9 95 -15 36 -5 92 -13 125 -17 33 -3 68 -8
79 -10 124 -23 674 -23 881 1 157 18 180 21 295 41 124 21 143 24 160 29 8 2
29 7 45 9 17 3 82 19 145 36 63 17 124 33 134 35 36 8 210 67 326 111 749 279
1460 800 1965 1439 22 28 43 52 46 55 30 27 329 468 329 486 0 4 6 15 14 23
28 33 175 313 244 466 47 105 160 382 167 410 1 6 5 17 8 25 61 161 175 604
201 785 4 23 9 52 11 65 4 21 19 133 40 305 28 224 27 787 -1 1035 -14 128
-47 354 -61 420 -8 41 -17 84 -19 95 -3 19 -8 40 -19 90 -32 151 -90 353 -152
530 -19 55 -36 105 -37 110 -1 6 -10 27 -19 49 -9 21 -17 41 -17 43 0 3 -23
59 -52 126 -86 203 -243 508 -332 647 -170 264 -272 405 -429 593 -94 112
-355 382 -470 486 -90 81 -320 260 -436 341 -64 44 -121 83 -127 87 -5 5 -21
14 -35 22 -13 8 -64 39 -114 70 -181 111 -511 269 -735 351 -174 64 -522 164
-645 184 -16 3 -66 11 -110 19 -44 8 -105 18 -135 22 -30 3 -62 8 -70 10 -8 2
-49 7 -90 11 -41 3 -93 9 -115 11 -48 5 -602 13 -607 8z m252 -1087 c74 -78
174 -183 221 -233 206 -215 226 -241 247 -325 10 -41 7 -116 -8 -169 -15 -58
-53 -107 -210 -271 -80 -83 -153 -167 -164 -186 -37 -69 -18 -142 57 -218 71
-72 97 -115 97 -160 0 -59 -24 -99 -115 -195 -122 -127 -116 -124 -264 -126
-69 -1 -135 -7 -146 -13 -38 -20 -245 -239 -259 -274 -24 -56 -16 -85 67 -258
32 -69 72 -152 87 -185 15 -33 56 -118 90 -190 48 -100 63 -141 63 -175 0 -56
-22 -101 -65 -132 -28 -20 -46 -23 -123 -24 -111 -2 -124 4 -246 116 -115 106
-148 129 -212 146 -76 20 -101 15 -302 -56 -351 -123 -462 -164 -486 -177 -57
-34 -111 -147 -102 -218 11 -98 63 -162 179 -220 44 -22 104 -54 135 -71 92
-51 274 -116 364 -129 42 -6 132 -15 193 -19 113 -8 184 -75 377 -356 86 -125
94 -136 162 -206 l61 -64 654 -1 c359 0 667 -3 683 -5 81 -12 178 -54 250
-108 75 -56 357 -356 402 -428 114 -181 127 -410 37 -658 -25 -69 -40 -100
-87 -180 -21 -36 -98 -130 -152 -186 -135 -139 -185 -195 -211 -234 -30 -44
-69 -136 -78 -182 -14 -76 -49 -208 -81 -298 -20 -58 -38 -112 -40 -120 -2 -8
-9 -28 -15 -45 -13 -34 -112 -313 -200 -569 -33 -93 -63 -173 -67 -177 -9 -9
-121 -34 -199 -45 -27 -3 -51 -8 -54 -9 -3 -2 -33 -6 -65 -10 -33 -4 -71 -8
-85 -11 -41 -7 -209 -17 -300 -18 l-85 -1 -1 355 c0 328 -2 362 -22 442 -65
262 -205 528 -383 724 -83 92 -135 182 -165 290 -14 50 -17 123 -20 466 -2
377 -4 414 -24 489 -38 147 -108 255 -232 354 -18 15 -467 275 -474 275 -3 0
-25 14 -49 30 -24 17 -46 30 -49 30 -4 0 -57 29 -119 64 -61 35 -157 87 -212
116 -277 147 -495 308 -705 521 -158 161 -203 225 -595 840 -49 77 -100 157
-113 177 -106 161 -212 333 -212 343 0 26 183 382 264 513 77 124 173 268 201
299 6 7 24 30 40 52 17 22 32 42 35 45 3 3 32 39 65 80 70 88 351 372 445 451
36 29 67 56 70 59 33 37 343 251 455 315 11 7 40 24 65 38 25 15 96 51 157 82
l113 55 82 -44 c46 -25 126 -67 178 -95 205 -111 241 -126 305 -128 104 -3
198 47 254 135 42 67 53 120 55 267 l1 130 70 12 c39 6 101 14 140 18 38 3 71
7 72 9 1 1 40 3 85 4 l84 3 134 -143z m3329 -2040 c5 -13 20 -48 34 -78 67
-146 151 -378 193 -530 13 -49 65 -259 69 -280 2 -14 7 -36 10 -50 6 -33 14
-77 21 -120 3 -19 7 -46 9 -59 11 -68 22 -155 32 -271 10 -111 10 -532 0 -635
-4 -44 -10 -104 -12 -134 -3 -30 -7 -57 -10 -59 -2 -2 -93 19 -202 48 -289 76
-370 100 -418 121 -74 33 -148 110 -230 242 -42 67 -128 203 -191 302 -140
221 -168 289 -166 405 2 136 19 176 182 435 73 116 149 236 169 268 137 220
158 241 345 341 77 42 144 76 149 76 4 0 11 -10 16 -22z"/>
</g>
</svg>
